<svg width="41" height="46" viewBox="0 0 41 46" fill="none" xmlns="http://www.w3.org/2000/svg">
<path fill-rule="evenodd" clip-rule="evenodd" d="M20.7597 0.296875C11.8525 0.296875 4.63184 7.51755 4.63184 16.4247C4.63184 25.3318 11.8525 32.5525 20.7597 32.5525C29.6668 32.5525 36.8875 25.3318 36.8875 16.4247C36.8875 7.51755 29.6668 0.296875 20.7597 0.296875ZM21.7057 27.1989C15.0824 27.6469 9.99012 15.3898 12.3795 13.0089C14.5593 10.8369 15.4246 11.6133 15.834 13.4319C16.0626 14.4475 15.8929 15.6937 15.74 16.8167C15.6071 17.7926 15.4869 18.6755 15.6518 19.2333C16.0063 20.433 16.6149 21.3838 17.3155 21.3163C18.0161 21.2488 19.1024 19.3641 16.7645 12.1572C15.0419 6.84692 19.6652 5.01121 20.0887 6.11644C20.2798 6.61537 20.0177 7.4323 19.7097 8.39199C19.3354 9.5582 18.8935 10.9352 19.1152 12.2087C19.2966 13.2509 19.4698 13.8298 19.6244 14.3467C19.8141 14.9812 19.976 15.5225 20.0912 16.7128C20.1399 17.2167 20.1165 17.8616 20.0916 18.5472C20.0286 20.2786 19.9563 22.2692 21.0139 22.9026C22.4902 23.7868 23.1376 19.4873 21.7161 11.7191C20.4396 4.74346 25.0209 6.89453 25.1418 9.00915C25.2627 11.1238 25.1286 14.3006 24.2741 18.7427C23.4195 23.1849 24.0411 23.5507 25.1418 22.4335C26.2425 21.3163 26.304 20.5266 25.6663 16.1225C25.2317 13.121 29.93 11.592 29.4234 15.5362C28.9135 19.5062 26.6051 26.8674 21.7057 27.1989Z" fill="#F9F9F9"/>
<path d="M2.998 45.7013C2.36205 45.7013 1.85509 45.5823 1.47711 45.3441C1.09914 45.112 0.910156 44.7945 0.910156 44.3914C0.910156 43.9517 1.15314 43.5914 1.6391 43.3104C1.37512 43.1456 1.24313 42.9288 1.24313 42.66C1.24313 42.5196 1.28213 42.3944 1.36012 42.2845C1.44412 42.1745 1.55511 42.086 1.6931 42.0188C1.46512 41.8539 1.29113 41.6432 1.17114 41.3867C1.05715 41.1302 1.00015 40.8493 1.00015 40.544C1.00015 40.2081 1.07214 39.9027 1.21613 39.6279C1.36012 39.347 1.57011 39.1271 1.84609 38.9683C2.12207 38.8034 2.44904 38.721 2.82702 38.721C3.22299 38.721 3.56496 38.8187 3.85294 39.0141C3.95493 38.9592 4.08992 38.9134 4.25791 38.8767C4.4319 38.834 4.61788 38.8126 4.81587 38.8126H5.03185L4.98692 39.2585C4.97156 39.411 4.84319 39.5271 4.68992 39.5271H4.62688C4.52489 39.5271 4.4409 39.5302 4.3749 39.5363C4.55489 39.8172 4.64488 40.1531 4.64488 40.544C4.64488 40.8798 4.57289 41.1882 4.4289 41.4692C4.29091 41.744 4.08392 41.9638 3.80794 42.1287C3.53196 42.2875 3.20499 42.3669 2.82702 42.3669C2.68903 42.3669 2.53004 42.3455 2.35005 42.3028C2.28406 42.3333 2.25106 42.3822 2.25106 42.4493C2.25106 42.5287 2.29605 42.5929 2.38605 42.6417C2.48204 42.6845 2.64103 42.7211 2.86301 42.7516L3.63696 42.8524C4.66888 42.9929 5.18484 43.4356 5.18484 44.1807C5.18484 44.6448 4.98986 45.0143 4.59989 45.2891C4.21591 45.5639 3.68195 45.7013 2.998 45.7013ZM2.82702 41.5241C3.085 41.5241 3.28298 41.4386 3.42097 41.2676C3.56496 41.0905 3.63696 40.8493 3.63696 40.544C3.63696 40.2386 3.56496 40.0004 3.42097 39.8294C3.28298 39.6523 3.085 39.5638 2.82702 39.5638C2.56304 39.5638 2.35905 39.6523 2.21506 39.8294C2.07707 40.0004 2.00808 40.2386 2.00808 40.544C2.00808 40.8493 2.07707 41.0905 2.21506 41.2676C2.35905 41.4386 2.56304 41.5241 2.82702 41.5241ZM3.043 44.8403C3.81094 44.8403 4.19492 44.6479 4.19492 44.2631C4.19492 44.0921 4.12892 43.9639 3.99693 43.8784C3.86494 43.799 3.64596 43.7349 3.33998 43.686L2.35005 43.5395C2.00808 43.6799 1.83709 43.8937 1.83709 44.1807C1.83709 44.4005 1.94208 44.5654 2.15207 44.6754C2.36205 44.7853 2.65903 44.8403 3.043 44.8403Z" fill="#F9F9F9"/>
<path d="M5.45461 38.8126H6.49854L6.52553 39.2981C6.65752 39.1454 6.82551 39.0111 7.0295 38.895C7.23948 38.779 7.45847 38.721 7.68645 38.721C7.75844 38.721 7.82444 38.7271 7.88443 38.7393L7.80344 39.8569C7.68945 39.8264 7.56046 39.8111 7.41647 39.8111C7.23048 39.8111 7.05949 39.8569 6.90351 39.9485C6.74752 40.034 6.63653 40.1409 6.57053 40.2691V43.3929H5.45461V38.8126Z" fill="#F9F9F9"/>
<path d="M10.234 43.4845C9.712 43.4845 9.26504 43.3776 8.89306 43.1639C8.52709 42.944 8.25111 42.6539 8.06512 42.2936C7.88514 41.9272 7.79514 41.5211 7.79514 41.0753C7.79514 40.6478 7.88214 40.2569 8.05612 39.9027C8.23011 39.5485 8.48209 39.2676 8.81207 39.0599C9.14205 38.8462 9.53502 38.7393 9.99098 38.7393C10.411 38.7393 10.7649 38.8279 11.0529 39.005C11.3469 39.1821 11.5659 39.4203 11.7099 39.7195C11.8598 40.0187 11.9348 40.3546 11.9348 40.7272C11.9348 40.9104 11.9108 41.118 11.8628 41.3501H8.95606C9.01605 41.7531 9.17204 42.0554 9.42402 42.257C9.67601 42.4524 9.97898 42.5501 10.333 42.5501C10.8189 42.5501 11.2689 42.4249 11.6829 42.1745L11.7369 43.1364C11.5449 43.2402 11.3199 43.3257 11.0619 43.3929C10.8099 43.454 10.5339 43.4845 10.234 43.4845ZM10.8009 40.5806C10.8009 40.3424 10.7349 40.1317 10.6029 39.9485C10.4709 39.7653 10.267 39.6737 9.99098 39.6737C9.715 39.6737 9.49302 39.7561 9.32503 39.921C9.15704 40.0859 9.04305 40.3058 8.98306 40.5806H10.8009Z" fill="#F9F9F9"/>
<path d="M14.6855 43.4845C14.1635 43.4845 13.7165 43.3776 13.3446 43.1639C12.9786 42.944 12.7026 42.6539 12.5166 42.2936C12.3366 41.9272 12.2467 41.5211 12.2467 41.0753C12.2467 40.6478 12.3336 40.2569 12.5076 39.9027C12.6816 39.5485 12.9336 39.2676 13.2636 39.0599C13.5936 38.8462 13.9865 38.7393 14.4425 38.7393C14.8625 38.7393 15.2164 38.8279 15.5044 39.005C15.7984 39.1821 16.0174 39.4203 16.1614 39.7195C16.3114 40.0187 16.3863 40.3546 16.3863 40.7272C16.3863 40.9104 16.3624 41.118 16.3144 41.3501H13.4076C13.4676 41.7531 13.6236 42.0554 13.8755 42.257C14.1275 42.4524 14.4305 42.5501 14.7845 42.5501C15.2704 42.5501 15.7204 42.4249 16.1344 42.1745L16.1884 43.1364C15.9964 43.2402 15.7714 43.3257 15.5134 43.3929C15.2614 43.454 14.9855 43.4845 14.6855 43.4845ZM15.2524 40.5806C15.2524 40.3424 15.1864 40.1317 15.0544 39.9485C14.9225 39.7653 14.7185 39.6737 14.4425 39.6737C14.1665 39.6737 13.9445 39.7561 13.7765 39.921C13.6086 40.0859 13.4946 40.3058 13.4346 40.5806H15.2524Z" fill="#F9F9F9"/>
<path d="M19.056 38.7393C19.614 38.7393 20.0369 38.9286 20.3249 39.3073C20.6129 39.6859 20.7569 40.1958 20.7569 40.8371V43.3929H19.6409V40.9287C19.6409 40.5012 19.569 40.1867 19.425 39.9852C19.287 39.7775 19.062 39.6737 18.75 39.6737C18.408 39.6737 18.1261 39.805 17.9041 40.0676V43.3929H16.7882V38.8126H17.8321L17.8501 39.1332C18.2281 38.8706 18.63 38.7393 19.056 38.7393Z" fill="#F9F9F9"/>
<path d="M22.6715 43.4845C22.3836 43.4845 22.1196 43.457 21.8796 43.402C21.6456 43.3471 21.4026 43.2616 21.1507 43.1456L21.2496 42.1745C21.5016 42.3272 21.7356 42.4432 21.9516 42.5226C22.1736 42.5959 22.4016 42.6326 22.6355 42.6326C23.0915 42.6326 23.3195 42.4799 23.3195 42.1745C23.3195 42.0096 23.2595 41.8844 23.1395 41.7989C23.0195 41.7073 22.8035 41.6005 22.4916 41.4783C22.0476 41.3134 21.7206 41.1272 21.5106 40.9195C21.3006 40.7058 21.1957 40.4188 21.1957 40.0584C21.1957 39.6615 21.3456 39.3409 21.6456 39.0966C21.9456 38.8462 22.3506 38.721 22.8605 38.721C23.3705 38.721 23.8355 38.8401 24.2554 39.0783L24.1564 40.0493C23.9285 39.8905 23.7125 39.7684 23.5085 39.6829C23.3105 39.5974 23.1005 39.5546 22.8785 39.5546C22.6865 39.5546 22.5366 39.5943 22.4286 39.6737C22.3266 39.7531 22.2756 39.8661 22.2756 40.0126C22.2756 40.1287 22.3056 40.2233 22.3656 40.2966C22.4316 40.3699 22.5216 40.4371 22.6355 40.4981C22.7495 40.5531 22.9385 40.6325 23.2025 40.7363C23.6405 40.9073 23.9555 41.0966 24.1474 41.3043C24.3394 41.5058 24.4354 41.7776 24.4354 42.1196C24.4354 42.5532 24.2824 42.8891 23.9764 43.1272C23.6705 43.3654 23.2355 43.4845 22.6715 43.4845Z" fill="#F9F9F9"/>
<path d="M27.1879 38.7393C27.6138 38.7393 27.9798 38.8462 28.2858 39.0599C28.5918 39.2737 28.8228 39.5607 28.9787 39.921C29.1347 40.2813 29.2127 40.6783 29.2127 41.1119C29.2127 41.5455 29.1347 41.9425 28.9787 42.3028C28.8228 42.6631 28.5918 42.9501 28.2858 43.1639C27.9798 43.3776 27.6138 43.4845 27.1879 43.4845C26.9179 43.4845 26.6869 43.454 26.4949 43.3929C26.3089 43.3379 26.129 43.2463 25.955 43.1181V45.2117V45.7029H25.5853C25.1732 45.7029 24.8391 45.3688 24.8391 44.9566V38.8126H25.739L25.856 39.234C26.048 39.0691 26.2489 38.947 26.4589 38.8676C26.6689 38.7821 26.9119 38.7393 27.1879 38.7393ZM27.0169 42.5501C27.3469 42.5501 27.6048 42.4188 27.7908 42.1562C27.9768 41.8936 28.0698 41.5455 28.0698 41.1119C28.0698 40.6783 27.9768 40.3302 27.7908 40.0676C27.6048 39.805 27.3469 39.6737 27.0169 39.6737C26.6449 39.6737 26.3659 39.8019 26.18 40.0584C25.994 40.3149 25.901 40.6661 25.901 41.1119C25.901 41.5577 25.994 41.9089 26.18 42.1654C26.3659 42.4219 26.6449 42.5501 27.0169 42.5501Z" fill="#F9F9F9"/>
<path d="M30.781 43.4845C30.409 43.4845 30.0971 43.3624 29.8451 43.1181C29.5991 42.8677 29.4761 42.5318 29.4761 42.1104C29.4761 41.7134 29.6171 41.3959 29.8991 41.1577C30.181 40.9134 30.514 40.7424 30.898 40.6447C31.282 40.5409 31.6509 40.4829 32.0049 40.4707C31.9929 40.202 31.9239 40.0096 31.7979 39.8935C31.6779 39.7775 31.477 39.7195 31.195 39.7195C30.997 39.7195 30.802 39.747 30.61 39.8019C30.424 39.8569 30.208 39.9455 29.9621 40.0676L29.8631 39.1424C30.409 38.8737 30.955 38.7393 31.501 38.7393C32.0289 38.7393 32.4309 38.8859 32.7069 39.179C32.9888 39.4722 33.1298 39.9394 33.1298 40.5806V41.8173C33.1298 42.0493 33.1388 42.2173 33.1568 42.3211C33.1808 42.4188 33.2168 42.4829 33.2648 42.5135C33.3188 42.5379 33.4058 42.5501 33.5258 42.5501H33.6698L33.5708 43.4845H33.1658C32.9198 43.4845 32.7129 43.4387 32.5449 43.3471C32.3769 43.2494 32.2479 43.1181 32.1579 42.9532C32.0139 43.1181 31.8159 43.2494 31.5639 43.3471C31.318 43.4387 31.057 43.4845 30.781 43.4845ZM31.249 42.6142C31.363 42.6142 31.492 42.5868 31.6359 42.5318C31.7799 42.4707 31.9059 42.3883 32.0139 42.2845V41.2402C31.6539 41.2585 31.336 41.3379 31.06 41.4783C30.784 41.6188 30.646 41.8142 30.646 42.0646C30.646 42.2539 30.694 42.3944 30.79 42.486C30.886 42.5715 31.039 42.6142 31.249 42.6142Z" fill="#F9F9F9"/>
<path d="M34.0212 38.8126H35.0651L35.0921 39.2981C35.2241 39.1454 35.3921 39.0111 35.5961 38.895C35.8061 38.779 36.025 38.721 36.253 38.721C36.325 38.721 36.391 38.7271 36.451 38.7393L36.37 39.8569C36.256 39.8264 36.127 39.8111 35.983 39.8111C35.7971 39.8111 35.6261 39.8569 35.4701 39.9485C35.3141 40.034 35.2031 40.1409 35.1371 40.2691V43.3929H34.0212V38.8126Z" fill="#F9F9F9"/>
<path d="M36.8027 36.5225H37.9186V40.6905L39.3135 38.8126H40.5734L38.9355 41.0111L40.6094 43.3929H39.3495L37.9186 41.3592V43.3929H36.8027V36.5225Z" fill="#F9F9F9"/>
</svg>
