<svg width="41" height="46" viewBox="0 0 41 46" fill="none" xmlns="http://www.w3.org/2000/svg">
<path fill-rule="evenodd" clip-rule="evenodd" d="M20.4364 0.296875C11.5293 0.296875 4.30859 7.51755 4.30859 16.4247C4.30859 25.3318 11.5293 32.5525 20.4364 32.5525C29.3436 32.5525 36.5642 25.3318 36.5642 16.4247C36.5642 7.51755 29.3436 0.296875 20.4364 0.296875ZM21.3825 27.1989C14.7591 27.6469 9.66688 15.3898 12.0563 13.0089C14.2361 10.8369 15.1014 11.6133 15.5108 13.4319C15.7394 14.4475 15.5697 15.6937 15.4168 16.8167C15.2839 17.7926 15.1637 18.6755 15.3285 19.2333C15.6831 20.433 16.2916 21.3838 16.9922 21.3163C17.6929 21.2488 18.7792 19.3641 16.4413 12.1572C14.7187 6.84692 19.3419 5.01121 19.7654 6.11644C19.9566 6.61537 19.6944 7.4323 19.3864 8.39199C19.0122 9.5582 18.5703 10.9352 18.792 12.2087C18.9734 13.2509 19.1465 13.8298 19.3011 14.3467C19.4909 14.9812 19.6528 15.5225 19.7679 16.7128C19.8167 17.2167 19.7932 17.8616 19.7683 18.5472C19.7054 20.2786 19.633 22.2692 20.6906 22.9026C22.1669 23.7868 22.8144 19.4873 21.3929 11.7191C20.1164 4.74346 24.6977 6.89453 24.8185 9.00915C24.9394 11.1238 24.8054 14.3006 23.9508 18.7427C23.0963 23.1849 23.7178 23.5507 24.8185 22.4335C25.9193 21.3163 25.9808 20.5266 25.3431 16.1225C24.9084 13.121 29.6068 11.592 29.1002 15.5362C28.5902 19.5062 26.2819 26.8674 21.3825 27.1989Z" fill="#3B755F"/>
<path d="M2.67378 45.7013C2.03783 45.7013 1.53087 45.5823 1.1529 45.3441C0.774924 45.112 0.585938 44.7945 0.585938 44.3914C0.585938 43.9517 0.82892 43.5914 1.31488 43.3104C1.0509 43.1456 0.918913 42.9288 0.918913 42.66C0.918913 42.5196 0.95791 42.3944 1.0359 42.2845C1.1199 42.1745 1.23089 42.086 1.36888 42.0188C1.1409 41.8539 0.96691 41.6432 0.846918 41.3867C0.732927 41.1302 0.675931 40.8493 0.675931 40.544C0.675931 40.2081 0.747926 39.9027 0.891915 39.6279C1.0359 39.347 1.24589 39.1271 1.52187 38.9683C1.79785 38.8034 2.12482 38.721 2.5028 38.721C2.89877 38.721 3.24074 38.8187 3.52872 39.0141C3.63071 38.9592 3.7657 38.9134 3.93369 38.8767C4.10768 38.834 4.29367 38.8126 4.49165 38.8126H4.70764L4.6627 39.2585C4.64734 39.411 4.51897 39.5271 4.3657 39.5271H4.30266C4.20067 39.5271 4.11668 39.5302 4.05068 39.5363C4.23067 39.8172 4.32066 40.1531 4.32066 40.544C4.32066 40.8798 4.24867 41.1882 4.10468 41.4692C3.96669 41.744 3.7597 41.9638 3.48373 42.1287C3.20775 42.2875 2.88077 42.3669 2.5028 42.3669C2.36481 42.3669 2.20582 42.3455 2.02583 42.3028C1.95984 42.3333 1.92684 42.3822 1.92684 42.4493C1.92684 42.5287 1.97184 42.5929 2.06183 42.6417C2.15782 42.6845 2.31681 42.7211 2.53879 42.7516L3.31274 42.8524C4.34466 42.9929 4.86062 43.4356 4.86062 44.1807C4.86062 44.6448 4.66564 45.0143 4.27567 45.2891C3.8917 45.5639 3.35773 45.7013 2.67378 45.7013ZM2.5028 41.5241C2.76078 41.5241 2.95876 41.4386 3.09675 41.2676C3.24074 41.0905 3.31274 40.8493 3.31274 40.544C3.31274 40.2386 3.24074 40.0004 3.09675 39.8294C2.95876 39.6523 2.76078 39.5638 2.5028 39.5638C2.23882 39.5638 2.03483 39.6523 1.89084 39.8294C1.75285 40.0004 1.68386 40.2386 1.68386 40.544C1.68386 40.8493 1.75285 41.0905 1.89084 41.2676C2.03483 41.4386 2.23882 41.5241 2.5028 41.5241ZM2.71878 44.8403C3.48672 44.8403 3.8707 44.6479 3.8707 44.2631C3.8707 44.0921 3.8047 43.9639 3.67271 43.8784C3.54072 43.799 3.32174 43.7349 3.01576 43.686L2.02583 43.5395C1.68386 43.6799 1.51287 43.8937 1.51287 44.1807C1.51287 44.4005 1.61786 44.5654 1.82785 44.6754C2.03783 44.7853 2.33481 44.8403 2.71878 44.8403Z" fill="#3B755F"/>
<path d="M5.13039 38.8126H6.17432L6.20131 39.2981C6.33331 39.1454 6.50129 39.0111 6.70528 38.895C6.91526 38.779 7.13425 38.721 7.36223 38.721C7.43422 38.721 7.50022 38.7271 7.56022 38.7393L7.47922 39.8569C7.36523 39.8264 7.23624 39.8111 7.09225 39.8111C6.90626 39.8111 6.73528 39.8569 6.57929 39.9485C6.4233 40.034 6.31231 40.1409 6.24631 40.2691V43.3929H5.13039V38.8126Z" fill="#3B755F"/>
<path d="M9.90975 43.4845C9.38778 43.4845 8.94082 43.3776 8.56884 43.1639C8.20287 42.944 7.92689 42.6539 7.7409 42.2936C7.56092 41.9272 7.47092 41.5211 7.47092 41.0753C7.47092 40.6478 7.55792 40.2569 7.73191 39.9027C7.90589 39.5485 8.15787 39.2676 8.48785 39.0599C8.81783 38.8462 9.2108 38.7393 9.66676 38.7393C10.0867 38.7393 10.4407 38.8279 10.7287 39.005C11.0227 39.1821 11.2416 39.4203 11.3856 39.7195C11.5356 40.0187 11.6106 40.3546 11.6106 40.7272C11.6106 40.9104 11.5866 41.118 11.5386 41.3501H8.63184C8.69184 41.7531 8.84783 42.0554 9.09981 42.257C9.35179 42.4524 9.65477 42.5501 10.0087 42.5501C10.4947 42.5501 10.9447 42.4249 11.3586 42.1745L11.4126 43.1364C11.2207 43.2402 10.9957 43.3257 10.7377 43.3929C10.4857 43.454 10.2097 43.4845 9.90975 43.4845ZM10.4767 40.5806C10.4767 40.3424 10.4107 40.1317 10.2787 39.9485C10.1467 39.7653 9.94274 39.6737 9.66676 39.6737C9.39078 39.6737 9.1688 39.7561 9.00081 39.921C8.83283 40.0859 8.71883 40.3058 8.65884 40.5806H10.4767Z" fill="#3B755F"/>
<path d="M14.3613 43.4845C13.8393 43.4845 13.3923 43.3776 13.0204 43.1639C12.6544 42.944 12.3784 42.6539 12.1924 42.2936C12.0124 41.9272 11.9224 41.5211 11.9224 41.0753C11.9224 40.6478 12.0094 40.2569 12.1834 39.9027C12.3574 39.5485 12.6094 39.2676 12.9394 39.0599C13.2693 38.8462 13.6623 38.7393 14.1183 38.7393C14.5382 38.7393 14.8922 38.8279 15.1802 39.005C15.4742 39.1821 15.6932 39.4203 15.8371 39.7195C15.9871 40.0187 16.0621 40.3546 16.0621 40.7272C16.0621 40.9104 16.0381 41.118 15.9901 41.3501H13.0833C13.1433 41.7531 13.2993 42.0554 13.5513 42.257C13.8033 42.4524 14.1063 42.5501 14.4602 42.5501C14.9462 42.5501 15.3962 42.4249 15.8102 42.1745L15.8641 43.1364C15.6722 43.2402 15.4472 43.3257 15.1892 43.3929C14.9372 43.454 14.6612 43.4845 14.3613 43.4845ZM14.9282 40.5806C14.9282 40.3424 14.8622 40.1317 14.7302 39.9485C14.5982 39.7653 14.3943 39.6737 14.1183 39.6737C13.8423 39.6737 13.6203 39.7561 13.4523 39.921C13.2843 40.0859 13.1703 40.3058 13.1103 40.5806H14.9282Z" fill="#3B755F"/>
<path d="M18.7318 38.7393C19.2897 38.7393 19.7127 38.9286 20.0007 39.3073C20.2887 39.6859 20.4326 40.1958 20.4326 40.8371V43.3929H19.3167V40.9287C19.3167 40.5012 19.2447 40.1867 19.1007 39.9852C18.9628 39.7775 18.7378 39.6737 18.4258 39.6737C18.0838 39.6737 17.8018 39.805 17.5799 40.0676V43.3929H16.4639V38.8126H17.5079L17.5259 39.1332C17.9038 38.8706 18.3058 38.7393 18.7318 38.7393Z" fill="#3B755F"/>
<path d="M22.3473 43.4845C22.0593 43.4845 21.7954 43.457 21.5554 43.402C21.3214 43.3471 21.0784 43.2616 20.8264 43.1456L20.9254 42.1745C21.1774 42.3272 21.4114 42.4432 21.6274 42.5226C21.8494 42.5959 22.0773 42.6326 22.3113 42.6326C22.7673 42.6326 22.9953 42.4799 22.9953 42.1745C22.9953 42.0096 22.9353 41.8844 22.8153 41.7989C22.6953 41.7073 22.4793 41.6005 22.1673 41.4783C21.7234 41.3134 21.3964 41.1272 21.1864 40.9195C20.9764 40.7058 20.8714 40.4188 20.8714 40.0584C20.8714 39.6615 21.0214 39.3409 21.3214 39.0966C21.6214 38.8462 22.0264 38.721 22.5363 38.721C23.0463 38.721 23.5112 38.8401 23.9312 39.0783L23.8322 40.0493C23.6042 39.8905 23.3883 39.7684 23.1843 39.6829C22.9863 39.5974 22.7763 39.5546 22.5543 39.5546C22.3623 39.5546 22.2123 39.5943 22.1043 39.6737C22.0023 39.7531 21.9514 39.8661 21.9514 40.0126C21.9514 40.1287 21.9814 40.2233 22.0413 40.2966C22.1073 40.3699 22.1973 40.4371 22.3113 40.4981C22.4253 40.5531 22.6143 40.6325 22.8783 40.7363C23.3163 40.9073 23.6312 41.0966 23.8232 41.3043C24.0152 41.5058 24.1112 41.7776 24.1112 42.1196C24.1112 42.5532 23.9582 42.8891 23.6522 43.1272C23.3463 43.3654 22.9113 43.4845 22.3473 43.4845Z" fill="#3B755F"/>
<path d="M26.8637 38.7393C27.2896 38.7393 27.6556 38.8462 27.9616 39.0599C28.2676 39.2737 28.4985 39.5607 28.6545 39.921C28.8105 40.2813 28.8885 40.6783 28.8885 41.1119C28.8885 41.5455 28.8105 41.9425 28.6545 42.3028C28.4985 42.6631 28.2676 42.9501 27.9616 43.1639C27.6556 43.3776 27.2896 43.4845 26.8637 43.4845C26.5937 43.4845 26.3627 43.454 26.1707 43.3929C25.9847 43.3379 25.8047 43.2463 25.6308 43.1181V45.2117V45.7029H25.2611C24.8489 45.7029 24.5148 45.3688 24.5148 44.9566V38.8126H25.4148L25.5318 39.234C25.7237 39.0691 25.9247 38.947 26.1347 38.8676C26.3447 38.7821 26.5877 38.7393 26.8637 38.7393ZM26.6927 42.5501C27.0226 42.5501 27.2806 42.4188 27.4666 42.1562C27.6526 41.8936 27.7456 41.5455 27.7456 41.1119C27.7456 40.6783 27.6526 40.3302 27.4666 40.0676C27.2806 39.805 27.0226 39.6737 26.6927 39.6737C26.3207 39.6737 26.0417 39.8019 25.8557 40.0584C25.6697 40.3149 25.5768 40.6661 25.5768 41.1119C25.5768 41.5577 25.6697 41.9089 25.8557 42.1654C26.0417 42.4219 26.3207 42.5501 26.6927 42.5501Z" fill="#3B755F"/>
<path d="M30.4568 43.4845C30.0848 43.4845 29.7728 43.3624 29.5209 43.1181C29.2749 42.8677 29.1519 42.5318 29.1519 42.1104C29.1519 41.7134 29.2929 41.3959 29.5749 41.1577C29.8568 40.9134 30.1898 40.7424 30.5738 40.6447C30.9578 40.5409 31.3267 40.4829 31.6807 40.4707C31.6687 40.202 31.5997 40.0096 31.4737 39.8935C31.3537 39.7775 31.1527 39.7195 30.8708 39.7195C30.6728 39.7195 30.4778 39.747 30.2858 39.8019C30.0998 39.8569 29.8838 39.9455 29.6378 40.0676L29.5389 39.1424C30.0848 38.8737 30.6308 38.7393 31.1767 38.7393C31.7047 38.7393 32.1067 38.8859 32.3826 39.179C32.6646 39.4722 32.8056 39.9394 32.8056 40.5806V41.8173C32.8056 42.0493 32.8146 42.2173 32.8326 42.3211C32.8566 42.4188 32.8926 42.4829 32.9406 42.5135C32.9946 42.5379 33.0816 42.5501 33.2016 42.5501H33.3456L33.2466 43.4845H32.8416C32.5956 43.4845 32.3886 43.4387 32.2207 43.3471C32.0527 43.2494 31.9237 43.1181 31.8337 42.9532C31.6897 43.1181 31.4917 43.2494 31.2397 43.3471C30.9937 43.4387 30.7328 43.4845 30.4568 43.4845ZM30.9248 42.6142C31.0387 42.6142 31.1677 42.5868 31.3117 42.5318C31.4557 42.4707 31.5817 42.3883 31.6897 42.2845V41.2402C31.3297 41.2585 31.0117 41.3379 30.7358 41.4783C30.4598 41.6188 30.3218 41.8142 30.3218 42.0646C30.3218 42.2539 30.3698 42.3944 30.4658 42.486C30.5618 42.5715 30.7148 42.6142 30.9248 42.6142Z" fill="#3B755F"/>
<path d="M33.697 38.8126H34.7409L34.7679 39.2981C34.8999 39.1454 35.0679 39.0111 35.2719 38.895C35.4818 38.779 35.7008 38.721 35.9288 38.721C36.0008 38.721 36.0668 38.7271 36.1268 38.7393L36.0458 39.8569C35.9318 39.8264 35.8028 39.8111 35.6588 39.8111C35.4728 39.8111 35.3018 39.8569 35.1459 39.9485C34.9899 40.034 34.8789 40.1409 34.8129 40.2691V43.3929H33.697V38.8126Z" fill="#3B755F"/>
<path d="M36.4785 36.5225H37.5944V40.6905L38.9893 38.8126H40.2492L38.6113 41.0111L40.2852 43.3929H39.0253L37.5944 41.3592V43.3929H36.4785V36.5225Z" fill="#3B755F"/>
</svg>
